<mxfile host="app.diagrams.net" modified="2023-08-25T16:40:19.980Z" agent="Mozilla/5.0 (X11; Linux x86_64; rv:103.0) Gecko/20100101 Firefox/103.0" etag="Utjk25dtPoKdjTQNr_1a" version="21.6.9" type="github">
  <diagram id="R2lEEEUBdFMjLlhIrx00" name="Page-1">
    <mxGraphModel dx="1434" dy="718" grid="1" gridSize="10" guides="1" tooltips="1" connect="1" arrows="1" fold="1" page="1" pageScale="1" pageWidth="850" pageHeight="1100" math="0" shadow="0" extFonts="Permanent Marker^https://fonts.googleapis.com/css?family=Permanent+Marker">
      <root>
        <mxCell id="0" />
        <mxCell id="1" parent="0" />
        <mxCell id="a1-c1E--fPf1U8R3g-JA-7" style="edgeStyle=orthogonalEdgeStyle;rounded=0;orthogonalLoop=1;jettySize=auto;html=1;exitX=1;exitY=0.5;exitDx=0;exitDy=0;entryX=0;entryY=0.5;entryDx=0;entryDy=0;" edge="1" parent="1" source="a1-c1E--fPf1U8R3g-JA-1" target="a1-c1E--fPf1U8R3g-JA-6">
          <mxGeometry relative="1" as="geometry" />
        </mxCell>
        <mxCell id="a1-c1E--fPf1U8R3g-JA-45" value="1" style="edgeLabel;html=1;align=center;verticalAlign=middle;resizable=0;points=[];" vertex="1" connectable="0" parent="a1-c1E--fPf1U8R3g-JA-7">
          <mxGeometry x="-0.1111" relative="1" as="geometry">
            <mxPoint as="offset" />
          </mxGeometry>
        </mxCell>
        <mxCell id="a1-c1E--fPf1U8R3g-JA-28" style="edgeStyle=orthogonalEdgeStyle;rounded=0;orthogonalLoop=1;jettySize=auto;html=1;exitX=0.5;exitY=1;exitDx=0;exitDy=0;entryX=0;entryY=0.5;entryDx=0;entryDy=0;" edge="1" parent="1" source="a1-c1E--fPf1U8R3g-JA-1" target="a1-c1E--fPf1U8R3g-JA-25">
          <mxGeometry relative="1" as="geometry" />
        </mxCell>
        <mxCell id="a1-c1E--fPf1U8R3g-JA-50" value="1" style="edgeLabel;html=1;align=center;verticalAlign=middle;resizable=0;points=[];" vertex="1" connectable="0" parent="a1-c1E--fPf1U8R3g-JA-28">
          <mxGeometry x="0.3103" relative="1" as="geometry">
            <mxPoint as="offset" />
          </mxGeometry>
        </mxCell>
        <mxCell id="a1-c1E--fPf1U8R3g-JA-1" value="VENDEDOR" style="swimlane;whiteSpace=wrap;html=1;" vertex="1" parent="1">
          <mxGeometry x="20" y="40" width="200" height="150" as="geometry" />
        </mxCell>
        <mxCell id="a1-c1E--fPf1U8R3g-JA-2" value="CÓDIGO" style="text;html=1;align=center;verticalAlign=middle;resizable=0;points=[];autosize=1;strokeColor=none;fillColor=none;" vertex="1" parent="1">
          <mxGeometry x="85" y="68" width="70" height="30" as="geometry" />
        </mxCell>
        <mxCell id="a1-c1E--fPf1U8R3g-JA-3" value="NOME" style="text;html=1;align=center;verticalAlign=middle;resizable=0;points=[];autosize=1;strokeColor=none;fillColor=none;" vertex="1" parent="1">
          <mxGeometry x="90" y="98" width="60" height="30" as="geometry" />
        </mxCell>
        <mxCell id="a1-c1E--fPf1U8R3g-JA-4" value="ENDEREÇO" style="text;html=1;align=center;verticalAlign=middle;resizable=0;points=[];autosize=1;strokeColor=none;fillColor=none;" vertex="1" parent="1">
          <mxGeometry x="75" y="128" width="90" height="30" as="geometry" />
        </mxCell>
        <mxCell id="a1-c1E--fPf1U8R3g-JA-5" value="COMISSÃO" style="text;html=1;align=center;verticalAlign=middle;resizable=0;points=[];autosize=1;strokeColor=none;fillColor=none;" vertex="1" parent="1">
          <mxGeometry x="75" y="158" width="90" height="30" as="geometry" />
        </mxCell>
        <mxCell id="a1-c1E--fPf1U8R3g-JA-9" style="edgeStyle=orthogonalEdgeStyle;rounded=0;orthogonalLoop=1;jettySize=auto;html=1;exitX=1;exitY=0.5;exitDx=0;exitDy=0;entryX=0;entryY=0.5;entryDx=0;entryDy=0;" edge="1" parent="1" source="a1-c1E--fPf1U8R3g-JA-6" target="a1-c1E--fPf1U8R3g-JA-8">
          <mxGeometry relative="1" as="geometry" />
        </mxCell>
        <mxCell id="a1-c1E--fPf1U8R3g-JA-47" value="N" style="edgeLabel;html=1;align=center;verticalAlign=middle;resizable=0;points=[];" vertex="1" connectable="0" parent="a1-c1E--fPf1U8R3g-JA-9">
          <mxGeometry x="-0.28" relative="1" as="geometry">
            <mxPoint as="offset" />
          </mxGeometry>
        </mxCell>
        <mxCell id="a1-c1E--fPf1U8R3g-JA-6" value="ATENDER" style="rhombus;whiteSpace=wrap;html=1;" vertex="1" parent="1">
          <mxGeometry x="310" y="75" width="80" height="80" as="geometry" />
        </mxCell>
        <mxCell id="a1-c1E--fPf1U8R3g-JA-15" style="edgeStyle=orthogonalEdgeStyle;rounded=0;orthogonalLoop=1;jettySize=auto;html=1;exitX=1;exitY=0.5;exitDx=0;exitDy=0;entryX=0;entryY=0.5;entryDx=0;entryDy=0;" edge="1" parent="1" source="a1-c1E--fPf1U8R3g-JA-8" target="a1-c1E--fPf1U8R3g-JA-14">
          <mxGeometry relative="1" as="geometry" />
        </mxCell>
        <mxCell id="a1-c1E--fPf1U8R3g-JA-48" value="1" style="edgeLabel;html=1;align=center;verticalAlign=middle;resizable=0;points=[];" vertex="1" connectable="0" parent="a1-c1E--fPf1U8R3g-JA-15">
          <mxGeometry x="-0.0833" y="-1" relative="1" as="geometry">
            <mxPoint as="offset" />
          </mxGeometry>
        </mxCell>
        <mxCell id="a1-c1E--fPf1U8R3g-JA-8" value="CLIENTE" style="swimlane;whiteSpace=wrap;html=1;" vertex="1" parent="1">
          <mxGeometry x="440" y="35" width="200" height="160" as="geometry" />
        </mxCell>
        <mxCell id="a1-c1E--fPf1U8R3g-JA-10" value="CD" style="text;html=1;align=center;verticalAlign=middle;resizable=0;points=[];autosize=1;strokeColor=none;fillColor=none;" vertex="1" parent="1">
          <mxGeometry x="510" y="68" width="40" height="30" as="geometry" />
        </mxCell>
        <mxCell id="a1-c1E--fPf1U8R3g-JA-11" value="NM" style="text;html=1;align=center;verticalAlign=middle;resizable=0;points=[];autosize=1;strokeColor=none;fillColor=none;" vertex="1" parent="1">
          <mxGeometry x="510" y="88" width="40" height="30" as="geometry" />
        </mxCell>
        <mxCell id="a1-c1E--fPf1U8R3g-JA-12" value="FAT" style="text;html=1;align=center;verticalAlign=middle;resizable=0;points=[];autosize=1;strokeColor=none;fillColor=none;" vertex="1" parent="1">
          <mxGeometry x="510" y="118" width="40" height="30" as="geometry" />
        </mxCell>
        <mxCell id="a1-c1E--fPf1U8R3g-JA-13" value="LIM D.C" style="text;html=1;align=center;verticalAlign=middle;resizable=0;points=[];autosize=1;strokeColor=none;fillColor=none;" vertex="1" parent="1">
          <mxGeometry x="495" y="148" width="70" height="30" as="geometry" />
        </mxCell>
        <mxCell id="a1-c1E--fPf1U8R3g-JA-20" style="edgeStyle=orthogonalEdgeStyle;rounded=0;orthogonalLoop=1;jettySize=auto;html=1;exitX=1;exitY=0.5;exitDx=0;exitDy=0;" edge="1" parent="1" source="a1-c1E--fPf1U8R3g-JA-14">
          <mxGeometry relative="1" as="geometry">
            <mxPoint x="910" y="115" as="targetPoint" />
          </mxGeometry>
        </mxCell>
        <mxCell id="a1-c1E--fPf1U8R3g-JA-49" value="N" style="edgeLabel;html=1;align=center;verticalAlign=middle;resizable=0;points=[];" vertex="1" connectable="0" parent="a1-c1E--fPf1U8R3g-JA-20">
          <mxGeometry x="-0.2057" y="-1" relative="1" as="geometry">
            <mxPoint as="offset" />
          </mxGeometry>
        </mxCell>
        <mxCell id="a1-c1E--fPf1U8R3g-JA-14" value="FAZ" style="rhombus;whiteSpace=wrap;html=1;" vertex="1" parent="1">
          <mxGeometry x="760" y="75" width="80" height="80" as="geometry" />
        </mxCell>
        <mxCell id="a1-c1E--fPf1U8R3g-JA-27" style="edgeStyle=orthogonalEdgeStyle;rounded=0;orthogonalLoop=1;jettySize=auto;html=1;exitX=0.5;exitY=1;exitDx=0;exitDy=0;entryX=1;entryY=0.5;entryDx=0;entryDy=0;" edge="1" parent="1" source="a1-c1E--fPf1U8R3g-JA-18" target="a1-c1E--fPf1U8R3g-JA-25">
          <mxGeometry relative="1" as="geometry" />
        </mxCell>
        <mxCell id="a1-c1E--fPf1U8R3g-JA-51" value="N" style="edgeLabel;html=1;align=center;verticalAlign=middle;resizable=0;points=[];" vertex="1" connectable="0" parent="a1-c1E--fPf1U8R3g-JA-27">
          <mxGeometry x="0.37" y="1" relative="1" as="geometry">
            <mxPoint as="offset" />
          </mxGeometry>
        </mxCell>
        <mxCell id="a1-c1E--fPf1U8R3g-JA-30" style="edgeStyle=orthogonalEdgeStyle;rounded=0;orthogonalLoop=1;jettySize=auto;html=1;exitX=1;exitY=1;exitDx=0;exitDy=0;entryX=0.6;entryY=0.138;entryDx=0;entryDy=0;entryPerimeter=0;" edge="1" parent="1" source="a1-c1E--fPf1U8R3g-JA-18" target="a1-c1E--fPf1U8R3g-JA-29">
          <mxGeometry relative="1" as="geometry" />
        </mxCell>
        <mxCell id="a1-c1E--fPf1U8R3g-JA-53" value="1&#39;" style="edgeLabel;html=1;align=center;verticalAlign=middle;resizable=0;points=[];" vertex="1" connectable="0" parent="a1-c1E--fPf1U8R3g-JA-30">
          <mxGeometry x="0.0314" y="1" relative="1" as="geometry">
            <mxPoint as="offset" />
          </mxGeometry>
        </mxCell>
        <mxCell id="a1-c1E--fPf1U8R3g-JA-18" value="PEDIDO" style="swimlane;whiteSpace=wrap;html=1;" vertex="1" parent="1">
          <mxGeometry x="910" y="35" width="200" height="165" as="geometry" />
        </mxCell>
        <mxCell id="a1-c1E--fPf1U8R3g-JA-21" value="NUM" style="text;html=1;align=center;verticalAlign=middle;resizable=0;points=[];autosize=1;strokeColor=none;fillColor=none;" vertex="1" parent="1">
          <mxGeometry x="975" y="58" width="50" height="30" as="geometry" />
        </mxCell>
        <mxCell id="a1-c1E--fPf1U8R3g-JA-22" value="DATA" style="text;html=1;align=center;verticalAlign=middle;resizable=0;points=[];autosize=1;strokeColor=none;fillColor=none;" vertex="1" parent="1">
          <mxGeometry x="975" y="88" width="50" height="30" as="geometry" />
        </mxCell>
        <mxCell id="a1-c1E--fPf1U8R3g-JA-23" value="CÓDIGO" style="text;html=1;align=center;verticalAlign=middle;resizable=0;points=[];autosize=1;strokeColor=none;fillColor=none;" vertex="1" parent="1">
          <mxGeometry x="965" y="118" width="70" height="30" as="geometry" />
        </mxCell>
        <mxCell id="a1-c1E--fPf1U8R3g-JA-24" value="NOME" style="text;html=1;align=center;verticalAlign=middle;resizable=0;points=[];autosize=1;strokeColor=none;fillColor=none;" vertex="1" parent="1">
          <mxGeometry x="960" y="158" width="60" height="30" as="geometry" />
        </mxCell>
        <mxCell id="a1-c1E--fPf1U8R3g-JA-25" value="TEM" style="rhombus;whiteSpace=wrap;html=1;" vertex="1" parent="1">
          <mxGeometry x="510" y="340" width="80" height="80" as="geometry" />
        </mxCell>
        <mxCell id="a1-c1E--fPf1U8R3g-JA-29" value="T" style="rhombus;whiteSpace=wrap;html=1;" vertex="1" parent="1">
          <mxGeometry x="1000" y="540" width="80" height="80" as="geometry" />
        </mxCell>
        <mxCell id="a1-c1E--fPf1U8R3g-JA-35" style="edgeStyle=orthogonalEdgeStyle;rounded=0;orthogonalLoop=1;jettySize=auto;html=1;exitX=0;exitY=0.5;exitDx=0;exitDy=0;entryX=1;entryY=0.5;entryDx=0;entryDy=0;" edge="1" parent="1" source="a1-c1E--fPf1U8R3g-JA-31" target="a1-c1E--fPf1U8R3g-JA-34">
          <mxGeometry relative="1" as="geometry" />
        </mxCell>
        <mxCell id="a1-c1E--fPf1U8R3g-JA-54" value="N" style="edgeLabel;html=1;align=center;verticalAlign=middle;resizable=0;points=[];" vertex="1" connectable="0" parent="a1-c1E--fPf1U8R3g-JA-35">
          <mxGeometry x="0.1053" y="2" relative="1" as="geometry">
            <mxPoint as="offset" />
          </mxGeometry>
        </mxCell>
        <mxCell id="a1-c1E--fPf1U8R3g-JA-36" style="edgeStyle=orthogonalEdgeStyle;rounded=0;orthogonalLoop=1;jettySize=auto;html=1;exitX=1;exitY=0.5;exitDx=0;exitDy=0;" edge="1" parent="1" source="a1-c1E--fPf1U8R3g-JA-31" target="a1-c1E--fPf1U8R3g-JA-29">
          <mxGeometry relative="1" as="geometry" />
        </mxCell>
        <mxCell id="a1-c1E--fPf1U8R3g-JA-52" value="N" style="edgeLabel;html=1;align=center;verticalAlign=middle;resizable=0;points=[];" vertex="1" connectable="0" parent="a1-c1E--fPf1U8R3g-JA-36">
          <mxGeometry x="-0.1294" y="-2" relative="1" as="geometry">
            <mxPoint as="offset" />
          </mxGeometry>
        </mxCell>
        <mxCell id="a1-c1E--fPf1U8R3g-JA-31" value="PEÇAS" style="swimlane;whiteSpace=wrap;html=1;" vertex="1" parent="1">
          <mxGeometry x="630" y="480" width="200" height="200" as="geometry" />
        </mxCell>
        <mxCell id="a1-c1E--fPf1U8R3g-JA-38" value="CD" style="text;html=1;align=center;verticalAlign=middle;resizable=0;points=[];autosize=1;strokeColor=none;fillColor=none;" vertex="1" parent="a1-c1E--fPf1U8R3g-JA-31">
          <mxGeometry x="70" y="40" width="40" height="30" as="geometry" />
        </mxCell>
        <mxCell id="a1-c1E--fPf1U8R3g-JA-44" style="edgeStyle=orthogonalEdgeStyle;rounded=0;orthogonalLoop=1;jettySize=auto;html=1;exitX=0;exitY=0.5;exitDx=0;exitDy=0;entryX=1;entryY=0.5;entryDx=0;entryDy=0;" edge="1" parent="1" source="a1-c1E--fPf1U8R3g-JA-34" target="a1-c1E--fPf1U8R3g-JA-41">
          <mxGeometry relative="1" as="geometry" />
        </mxCell>
        <mxCell id="a1-c1E--fPf1U8R3g-JA-55" value="1" style="edgeLabel;html=1;align=center;verticalAlign=middle;resizable=0;points=[];" vertex="1" connectable="0" parent="a1-c1E--fPf1U8R3g-JA-44">
          <mxGeometry x="-0.0286" y="1" relative="1" as="geometry">
            <mxPoint as="offset" />
          </mxGeometry>
        </mxCell>
        <mxCell id="a1-c1E--fPf1U8R3g-JA-34" value="T" style="rhombus;whiteSpace=wrap;html=1;" vertex="1" parent="1">
          <mxGeometry x="360" y="540" width="80" height="80" as="geometry" />
        </mxCell>
        <mxCell id="a1-c1E--fPf1U8R3g-JA-39" value="DS" style="text;html=1;align=center;verticalAlign=middle;resizable=0;points=[];autosize=1;strokeColor=none;fillColor=none;" vertex="1" parent="1">
          <mxGeometry x="700" y="568" width="40" height="30" as="geometry" />
        </mxCell>
        <mxCell id="a1-c1E--fPf1U8R3g-JA-40" value="PREÇO" style="text;html=1;align=center;verticalAlign=middle;resizable=0;points=[];autosize=1;strokeColor=none;fillColor=none;" vertex="1" parent="1">
          <mxGeometry x="685" y="618" width="70" height="30" as="geometry" />
        </mxCell>
        <mxCell id="a1-c1E--fPf1U8R3g-JA-41" value="ARMAZÉM" style="swimlane;whiteSpace=wrap;html=1;" vertex="1" parent="1">
          <mxGeometry x="90" y="480" width="200" height="200" as="geometry" />
        </mxCell>
        <mxCell id="a1-c1E--fPf1U8R3g-JA-42" value="CD" style="text;html=1;align=center;verticalAlign=middle;resizable=0;points=[];autosize=1;strokeColor=none;fillColor=none;" vertex="1" parent="1">
          <mxGeometry x="160" y="548" width="40" height="30" as="geometry" />
        </mxCell>
        <mxCell id="a1-c1E--fPf1U8R3g-JA-43" value="ED" style="text;html=1;align=center;verticalAlign=middle;resizable=0;points=[];autosize=1;strokeColor=none;fillColor=none;" vertex="1" parent="1">
          <mxGeometry x="160" y="588" width="40" height="30" as="geometry" />
        </mxCell>
      </root>
    </mxGraphModel>
  </diagram>
</mxfile>
